<svg xmlns="http://www.w3.org/2000/svg" width="212" height="35" viewBox="0 0 212 35">
  <defs>
    <linearGradient id="logo-a" x1="100%" x2=".258%" y1="0%" y2="100%">
      <stop offset="0%" stop-color="#ABA5E4"/>
      <stop offset="41.997%" stop-color="#84AAD7"/>
      <stop offset="100%" stop-color="#EB51EC"/>
    </linearGradient>
  </defs>
  <g fill="none" fill-rule="evenodd" transform="translate(-3.5 -4)">
    <path fill="#000" fill-rule="nonzero" d="M55.296,32 C56.3626667,32 57.3066667,31.8506667 58.128,31.552 C58.9493333,31.2533333 59.6426667,30.8426667 60.208,30.32 C60.7733333,29.7973333 61.2,29.1786667 61.488,28.464 C61.776,27.7493333 61.92,26.976 61.92,26.144 L61.92,26.144 L61.92,25.76 C61.92,24.48 61.5626667,23.4506667 60.848,22.672 C60.1333333,21.8933333 59.232,21.3546667 58.144,21.056 L58.144,21.056 L58.144,20.48 C59.232,20.1813333 60.1333333,19.648 60.848,18.88 C61.5626667,18.112 61.92,17.088 61.92,15.808 L61.92,15.808 L61.92,15.424 C61.92,14.592 61.776,13.8186667 61.488,13.104 C61.2,12.3893333 60.7733333,11.776 60.208,11.264 C59.6426667,10.752 58.9493333,10.3466667 58.128,10.048 C57.3066667,9.74933333 56.3626667,9.6 55.296,9.6 L55.296,9.6 L45.472,9.6 L45.472,13.632 L47.584,13.632 L47.584,27.968 L45.472,27.968 L45.472,32 L55.296,32 Z M54.88,18.752 L51.808,18.752 L51.808,13.632 L54.88,13.632 C55.776,13.632 56.5013333,13.8186667 57.056,14.192 C57.6106667,14.5653333 57.888,15.2 57.888,16.096 L57.888,16.096 L57.888,16.288 C57.888,17.184 57.6106667,17.8186667 57.056,18.192 C56.5013333,18.5653333 55.776,18.752 54.88,18.752 L54.88,18.752 Z M54.88,27.968 L51.808,27.968 L51.808,22.784 L54.88,22.784 C55.776,22.784 56.5013333,22.976 57.056,23.36 C57.6106667,23.744 57.888,24.384 57.888,25.28 L57.888,25.28 L57.888,25.472 C57.888,26.368 57.6106667,27.008 57.056,27.392 C56.5013333,27.776 55.776,27.968 54.88,27.968 L54.88,27.968 Z M80.288,32 L80.288,28.16 L75.104,28.16 L75.104,9.6 L65.696,9.6 L65.696,13.44 L71.072,13.44 L71.072,28.16 L65.504,28.16 L65.504,32 L80.288,32 Z M90.496,32.448 C91.52,32.448 92.416,32.24 93.184,31.824 C93.952,31.408 94.5493333,30.6986667 94.976,29.696 L94.976,29.696 L95.552,29.696 C95.552,30.3786667 95.7813333,30.9333333 96.24,31.36 C96.6986667,31.7866667 97.2906667,32 98.016,32 L98.016,32 L100.768,32 L100.768,28.16 L100.16,28.16 C99.584,28.16 99.296,27.84 99.296,27.2 L99.296,27.2 L99.296,16.128 L95.264,16.128 L95.264,18.048 L94.688,18.048 C94.2826667,17.2373333 93.7333333,16.64 93.04,16.256 C92.3466667,15.872 91.4346667,15.68 90.304,15.68 C89.3653333,15.68 88.4853333,15.8666667 87.664,16.24 C86.8426667,16.6133333 86.1226667,17.152 85.504,17.856 C84.8853333,18.56 84.3946667,19.4133333 84.032,20.416 C83.6693333,21.4186667 83.488,22.5493333 83.488,23.808 L83.488,23.808 L83.488,24.32 C83.488,25.6 83.6746667,26.7413333 84.048,27.744 C84.4213333,28.7466667 84.928,29.6 85.568,30.304 C86.208,31.008 86.9493333,31.5413333 87.792,31.904 C88.6346667,32.2666667 89.536,32.448 90.496,32.448 Z M91.392,28.608 C90.2186667,28.608 89.28,28.2186667 88.576,27.44 C87.872,26.6613333 87.52,25.6 87.52,24.256 L87.52,24.256 L87.52,23.872 C87.52,22.528 87.872,21.4666667 88.576,20.688 C89.28,19.9093333 90.2186667,19.52 91.392,19.52 C92.5653333,19.52 93.504,19.9093333 94.208,20.688 C94.912,21.4666667 95.264,22.528 95.264,23.872 L95.264,23.872 L95.264,24.256 C95.264,25.6 94.912,26.6613333 94.208,27.44 C93.504,28.2186667 92.5653333,28.608 91.392,28.608 Z M111.296,32.448 C113.557333,32.448 115.365333,31.872 116.72,30.72 C118.074667,29.568 118.933333,28.0533333 119.296,26.176 L119.296,26.176 L115.328,25.184 C115.136,26.2293333 114.714667,27.0613333 114.064,27.68 C113.413333,28.2986667 112.469333,28.608 111.232,28.608 C110.656,28.608 110.112,28.5173333 109.6,28.336 C109.088,28.1546667 108.64,27.8826667 108.256,27.52 C107.872,27.1573333 107.568,26.704 107.344,26.16 C107.12,25.616 107.008,24.992 107.008,24.288 L107.008,24.288 L107.008,24.096 C107.008,23.392 107.12,22.7573333 107.344,22.192 C107.568,21.6266667 107.872,21.1466667 108.256,20.752 C108.64,20.3573333 109.088,20.0533333 109.6,19.84 C110.112,19.6266667 110.656,19.52 111.232,19.52 C112.469333,19.52 113.429333,19.8613333 114.112,20.544 C114.794667,21.2266667 115.2,22.0373333 115.328,22.976 L115.328,22.976 L119.296,21.952 C118.933333,20.0746667 118.064,18.56 116.688,17.408 C115.312,16.256 113.514667,15.68 111.296,15.68 C110.144,15.68 109.061333,15.872 108.048,16.256 C107.034667,16.64 106.149333,17.1946667 105.392,17.92 C104.634667,18.6453333 104.042667,19.52 103.616,20.544 C103.189333,21.568 102.976,22.72 102.976,24 L102.976,24 L102.976,24.384 C102.976,25.664 103.189333,26.8053333 103.616,27.808 C104.042667,28.8106667 104.629333,29.6533333 105.376,30.336 C106.122667,31.0186667 107.002667,31.5413333 108.016,31.904 C109.029333,32.2666667 110.122667,32.448 111.296,32.448 Z M128.224,32 L128.224,25.792 L128.992,25.792 L133.536,32 L138.144,32 L138.144,31.808 L132.512,24.16 L132.512,23.584 L137.632,16.32 L137.632,16.128 L133.216,16.128 L128.992,21.952 L128.224,21.952 L128.224,9.6 L124.192,9.6 L124.192,32 L128.224,32 Z M149.696,32.448 C151.786667,32.448 153.408,31.9786667 154.56,31.04 C155.712,30.1013333 156.288,28.8426667 156.288,27.264 L156.288,27.264 L156.288,27.072 C156.288,25.6426667 155.776,24.528 154.752,23.728 C153.728,22.928 152.405333,22.4426667 150.784,22.272 C149.376,22.1226667 148.405333,21.936 147.872,21.712 C147.338667,21.488 147.072,21.12 147.072,20.608 C147.072,20.2453333 147.242667,19.9413333 147.584,19.696 C147.925333,19.4506667 148.437333,19.328 149.12,19.328 C149.866667,19.328 150.474667,19.4933333 150.944,19.824 C151.413333,20.1546667 151.744,20.608 151.936,21.184 L151.936,21.184 L155.584,19.712 C155.413333,19.264 155.168,18.8 154.848,18.32 C154.528,17.84 154.112,17.4026667 153.6,17.008 C153.088,16.6133333 152.464,16.2933333 151.728,16.048 C150.992,15.8026667 150.122667,15.68 149.12,15.68 C148.352,15.68 147.605333,15.7866667 146.88,16 C146.154667,16.2133333 145.514667,16.528 144.96,16.944 C144.405333,17.36 143.957333,17.8666667 143.616,18.464 C143.274667,19.0613333 143.104,19.7546667 143.104,20.544 L143.104,20.544 L143.104,20.736 C143.104,22.2506667 143.632,23.3973333 144.688,24.176 C145.744,24.9546667 147.168,25.4186667 148.96,25.568 C149.621333,25.632 150.170667,25.7173333 150.608,25.824 C151.045333,25.9306667 151.392,26.064 151.648,26.224 C151.904,26.384 152.08,26.5546667 152.176,26.736 C152.272,26.9173333 152.32,27.1146667 152.32,27.328 C152.32,27.6906667 152.133333,28.0266667 151.76,28.336 C151.386667,28.6453333 150.698667,28.8 149.696,28.8 C148.565333,28.8 147.728,28.544 147.184,28.032 C146.64,27.52 146.282667,26.9226667 146.112,26.24 L146.112,26.24 L142.4,27.456 C142.506667,28.0106667 142.714667,28.5813333 143.024,29.168 C143.333333,29.7546667 143.776,30.288 144.352,30.768 C144.928,31.248 145.653333,31.648 146.528,31.968 C147.402667,32.288 148.458667,32.448 149.696,32.448 Z M167.136,32 L168.032,19.968 L168.032,18.048 L168.8,18.048 L168.8,19.968 L169.696,32 L176.672,32 L177.728,16.128 L174.016,16.128 L173.312,28.16 L173.312,30.08 L172.544,30.08 L172.544,28.16 L171.744,16.128 L165.088,16.128 L164.288,28.16 L164.288,30.08 L163.52,30.08 L163.52,28.16 L162.816,16.128 L159.104,16.128 L160.16,32 L167.136,32 Z M186.016,32.448 C187.04,32.448 187.936,32.24 188.704,31.824 C189.472,31.408 190.069333,30.6986667 190.496,29.696 L190.496,29.696 L191.072,29.696 C191.072,30.3786667 191.301333,30.9333333 191.76,31.36 C192.218667,31.7866667 192.810667,32 193.536,32 L193.536,32 L196.288,32 L196.288,28.16 L195.68,28.16 C195.104,28.16 194.816,27.84 194.816,27.2 L194.816,27.2 L194.816,16.128 L190.784,16.128 L190.784,18.048 L190.208,18.048 C189.802667,17.2373333 189.253333,16.64 188.56,16.256 C187.866667,15.872 186.954667,15.68 185.824,15.68 C184.885333,15.68 184.005333,15.8666667 183.184,16.24 C182.362667,16.6133333 181.642667,17.152 181.024,17.856 C180.405333,18.56 179.914667,19.4133333 179.552,20.416 C179.189333,21.4186667 179.008,22.5493333 179.008,23.808 L179.008,23.808 L179.008,24.32 C179.008,25.6 179.194667,26.7413333 179.568,27.744 C179.941333,28.7466667 180.448,29.6 181.088,30.304 C181.728,31.008 182.469333,31.5413333 183.312,31.904 C184.154667,32.2666667 185.056,32.448 186.016,32.448 Z M186.912,28.608 C185.738667,28.608 184.8,28.2186667 184.096,27.44 C183.392,26.6613333 183.04,25.6 183.04,24.256 L183.04,24.256 L183.04,23.872 C183.04,22.528 183.392,21.4666667 184.096,20.688 C184.8,19.9093333 185.738667,19.52 186.912,19.52 C188.085333,19.52 189.024,19.9093333 189.728,20.688 C190.432,21.4666667 190.784,22.528 190.784,23.872 L190.784,23.872 L190.784,24.256 C190.784,25.6 190.432,26.6613333 189.728,27.44 C189.024,28.2186667 188.085333,28.608 186.912,28.608 Z M202.528,38.4 L202.528,29.696 L203.104,29.696 C203.296,30.0586667 203.525333,30.4053333 203.792,30.736 C204.058667,31.0666667 204.389333,31.36 204.784,31.616 C205.178667,31.872 205.642667,32.0746667 206.176,32.224 C206.709333,32.3733333 207.338667,32.448 208.064,32.448 C209.045333,32.448 209.957333,32.272 210.8,31.92 C211.642667,31.568 212.373333,31.0453333 212.992,30.352 C213.610667,29.6586667 214.101333,28.8106667 214.464,27.808 C214.826667,26.8053333 215.008,25.6533333 215.008,24.352 L215.008,24.352 L215.008,23.776 C215.008,22.496 214.821333,21.3546667 214.448,20.352 C214.074667,19.3493333 213.573333,18.5013333 212.944,17.808 C212.314667,17.1146667 211.578667,16.5866667 210.736,16.224 C209.893333,15.8613333 209.002667,15.68 208.064,15.68 C206.805333,15.68 205.770667,15.92 204.96,16.4 C204.149333,16.88 203.530667,17.5573333 203.104,18.432 L203.104,18.432 L202.528,18.432 L202.528,16.128 L198.496,16.128 L198.496,38.4 L202.528,38.4 Z M206.752,28.608 C205.493333,28.608 204.474667,28.208 203.696,27.408 C202.917333,26.608 202.528,25.5573333 202.528,24.256 L202.528,24.256 L202.528,23.872 C202.528,22.5706667 202.917333,21.52 203.696,20.72 C204.474667,19.92 205.493333,19.52 206.752,19.52 C208.010667,19.52 209.029333,19.9093333 209.808,20.688 C210.586667,21.4666667 210.976,22.528 210.976,23.872 L210.976,23.872 L210.976,24.256 C210.976,25.6 210.586667,26.6613333 209.808,27.44 C209.029333,28.2186667 208.010667,28.608 206.752,28.608 Z"/>
    <path fill="url(#logo-a)" d="M4,36 L4,20 L4.00303642,19.6851293 C4.17079531,10.993901 11.2686411,4 20,4 C28.836556,4 36,11.163444 36,20 C36,28.836556 28.836556,36 20,36 L20,36 L4,36 Z" transform="matrix(1 0 0 -1 0 40)"/>
  </g>
</svg>
