<svg xmlns="http://www.w3.org/2000/svg" width="200" height="200" viewBox="0 0 200 200">
  <defs>
    <filter id="blueswap_symbol-a">
      <feColorMatrix in="SourceGraphic" values="0 0 0 0 0.219608 0 0 0 0 0.541176 0 0 0 0 0.968627 0 0 0 1.000000 0"/>
    </filter>
  </defs>
  <g fill="none" fill-rule="evenodd">
    <rect width="200" height="200"/>
    <g filter="url(#blueswap_symbol-a)" transform="translate(18 18)">
      <path fill="#388AF7" d="M0.107416667,79.3641667 C1.19491667,34.5043333 38.4426667,-0.980333333 83.3025,0.107166667 C128.1625,1.19466667 163.6475,38.4423333 162.56,83.3025 C162.490833,86.1433333 161.535833,88.7391667 159.776667,90.8758333 C158.094167,92.92 155.915,94.26 153.765833,95.1575 C149.581667,96.9041667 144.338333,97.4516667 139.149167,97.4866667 C116.743333,97.6383333 97.2825,116.91 96.0108333,139.639167 C95.7133333,144.9425 94.8091667,150.335833 92.5275,154.574167 C91.3458333,156.768333 89.6858333,158.855833 87.3608333,160.3675 C84.9808333,161.915 82.2516667,162.629167 79.3641667,162.559167 C34.5045833,161.471667 -0.980083333,124.224167 0.107416667,79.3641667 Z" transform="translate(.667 .667)"/>
    </g>
  </g>
</svg>
