<svg xmlns="http://www.w3.org/2000/svg" width="134" height="32" viewBox="0 0 134 32">
  <defs>
    <filter id="blueswap_wordmark-a">
      <feColorMatrix in="SourceGraphic" values="0 0 0 0 0.219608 0 0 0 0 0.541176 0 0 0 0 0.968627 0 0 0 1.000000 0"/>
    </filter>
  </defs>
  <g fill="none" fill-rule="evenodd" transform="translate(2 2)">
    <path fill="#414859" fill-rule="nonzero" d="M44.02,21 C45.5266667,21 46.7,20.62 47.54,19.86 C48.38,19.1 48.8,18.1 48.8,16.86 C48.8,16.1266667 48.6066667,15.4733333 48.22,14.9 C47.8333333,14.3266667 47.36,13.9133333 46.8,13.66 C47.2533333,13.4466667 47.65,13.0966667 47.99,12.61 C48.33,12.1233333 48.5,11.5333333 48.5,10.84 C48.5,9.65333333 48.1133333,8.71666667 47.34,8.03 C46.5666667,7.34333333 45.4,7 43.84,7 L43.84,7 L38.04,7 C37.8933333,7 37.7766667,7.04666667 37.69,7.14 C37.6033333,7.23333333 37.56,7.35333333 37.56,7.5 L37.56,7.5 L37.56,20.52 C37.56,20.6533333 37.6066667,20.7666667 37.7,20.86 C37.7933333,20.9533333 37.9066667,21 38.04,21 L38.04,21 L44.02,21 Z M43.48,12.74 L40.38,12.74 L40.38,9.14 L43.48,9.14 C44.1733333,9.14 44.7,9.29333333 45.06,9.6 C45.42,9.90666667 45.6,10.34 45.6,10.9 C45.6,11.46 45.4166667,11.9066667 45.05,12.24 C44.6833333,12.5733333 44.16,12.74 43.48,12.74 L43.48,12.74 Z M43.68,18.86 L40.38,18.86 L40.38,14.82 L43.68,14.82 C44.36,14.82 44.8966667,15.01 45.29,15.39 C45.6833333,15.77 45.88,16.2533333 45.88,16.84 C45.88,17.4266667 45.6866667,17.91 45.3,18.29 C44.9133333,18.67 44.3733333,18.86 43.68,18.86 L43.68,18.86 Z M52.94,21 C53.0866667,21 53.2033333,20.9533333 53.29,20.86 C53.3766667,20.7666667 53.42,20.6533333 53.42,20.52 L53.42,20.52 L53.42,7.28 C53.42,7.13333333 53.3766667,7.01666667 53.29,6.93 C53.2033333,6.84333333 53.0866667,6.8 52.94,6.8 L52.94,6.8 L51.26,6.8 C51.1266667,6.8 51.0133333,6.84333333 50.92,6.93 C50.8266667,7.01666667 50.78,7.13333333 50.78,7.28 L50.78,7.28 L50.78,20.52 C50.78,20.6533333 50.8266667,20.7666667 50.92,20.86 C51.0133333,20.9533333 51.1266667,21 51.26,21 L51.26,21 L52.94,21 Z M59.64,21.2 C61.12,21.2 62.2266667,20.7 62.96,19.7 L62.96,19.7 L62.96,20.52 C62.96,20.6533333 63.0066667,20.7666667 63.1,20.86 C63.1933333,20.9533333 63.3066667,21 63.44,21 L63.44,21 L65.1,21 C65.2466667,21 65.3633333,20.9533333 65.45,20.86 C65.5366667,20.7666667 65.58,20.6533333 65.58,20.52 L65.58,20.52 L65.58,11.08 C65.58,10.9333333 65.5366667,10.8166667 65.45,10.73 C65.3633333,10.6433333 65.2466667,10.6 65.1,10.6 L65.1,10.6 L63.32,10.6 C63.1866667,10.6 63.0733333,10.6433333 62.98,10.73 C62.8866667,10.8166667 62.84,10.9333333 62.84,11.08 L62.84,11.08 L62.84,16.58 C62.84,17.34 62.6366667,17.94 62.23,18.38 C61.8233333,18.82 61.2733333,19.04 60.58,19.04 C59.1533333,19.04 58.44,18.22 58.44,16.58 L58.44,16.58 L58.44,11.08 C58.44,10.9466667 58.3933333,10.8333333 58.3,10.74 C58.2066667,10.6466667 58.0933333,10.6 57.96,10.6 L57.96,10.6 L56.16,10.6 C56.0266667,10.6 55.9133333,10.6433333 55.82,10.73 C55.7266667,10.8166667 55.68,10.9333333 55.68,11.08 L55.68,11.08 L55.68,16.7 C55.68,18.1 56.0333333,19.2 56.74,20 C57.4466667,20.8 58.4133333,21.2 59.64,21.2 Z M72.42,21.2 C73.3533333,21.2 74.1733333,21.04 74.88,20.72 C75.5866667,20.4 76.13,20.0233333 76.51,19.59 C76.89,19.1566667 77.08,18.78 77.08,18.46 C77.08,18.34 77.0366667,18.2466667 76.95,18.18 C76.8633333,18.1133333 76.76,18.08 76.64,18.08 L76.64,18.08 L74.88,18.08 C74.72,18.08 74.6066667,18.0966667 74.54,18.13 C74.4733333,18.1633333 74.38,18.2533333 74.26,18.4 C73.78,19.0133333 73.16,19.32 72.4,19.32 C71.7333333,19.32 71.21,19.0766667 70.83,18.59 C70.45,18.1033333 70.2466667,17.4866667 70.22,16.74 L70.22,16.74 L70.22,16.58 L76.86,16.58 C77.0066667,16.58 77.1266667,16.5333333 77.22,16.44 C77.3133333,16.3466667 77.36,16.2333333 77.36,16.1 L77.36,16.1 L77.36,15.68 C77.36,14.08 76.93,12.8 76.07,11.84 C75.21,10.88 73.9866667,10.4 72.4,10.4 C70.8533333,10.4 69.6433333,10.88 68.77,11.84 C67.8966667,12.8 67.46,14.1133333 67.46,15.78 L67.46,15.78 L67.48,16.28 C67.5333333,17.8533333 67.9966667,19.0666667 68.87,19.92 C69.7433333,20.7733333 70.9266667,21.2 72.42,21.2 Z M74.6,14.88 L70.22,14.88 L70.22,14.84 C70.22,14.0533333 70.4133333,13.4233333 70.8,12.95 C71.1866667,12.4766667 71.72,12.24 72.4,12.24 C73.08,12.24 73.6166667,12.4766667 74.01,12.95 C74.4033333,13.4233333 74.6,14.0533333 74.6,14.84 L74.6,14.84 L74.6,14.88 Z M88.2,21.2 C89.76,21.2 90.9866667,20.8633333 91.88,20.19 C92.7733333,19.5166667 93.22,18.58 93.22,17.38 C93.22,16.66 93.0633333,16.0733333 92.75,15.62 C92.4366667,15.1666667 91.9733333,14.78 91.36,14.46 C90.7466667,14.14 89.8933333,13.8066667 88.8,13.46 C87.7333333,13.1133333 86.9266667,12.8166667 86.38,12.57 C85.8333333,12.3233333 85.4233333,12.03 85.15,11.69 C84.8766667,11.35 84.74,10.92 84.74,10.4 C84.74,9.6 85.0433333,9 85.65,8.6 C86.2566667,8.2 87.0733333,8 88.1,8 C89.06,8 89.8566667,8.21666667 90.49,8.65 C91.1233333,9.08333333 91.48,9.63333333 91.56,10.3 C91.5733333,10.4466667 91.6266667,10.55 91.72,10.61 C91.8133333,10.67 91.9066667,10.7 92,10.7 L92,10.7 L92.4,10.7 C92.5333333,10.7 92.6366667,10.66 92.71,10.58 C92.7833333,10.5 92.82,10.4066667 92.82,10.3 C92.7933333,9.75333333 92.6,9.21 92.24,8.67 C91.88,8.13 91.3466667,7.68333333 90.64,7.33 C89.9333333,6.97666667 89.0866667,6.8 88.1,6.8 C87.14,6.8 86.3133333,6.95666667 85.62,7.27 C84.9266667,7.58333333 84.3966667,8.01333333 84.03,8.56 C83.6633333,9.10666667 83.48,9.72 83.48,10.4 C83.48,11.12 83.62,11.7133333 83.9,12.18 C84.18,12.6466667 84.61,13.04 85.19,13.36 C85.77,13.68 86.5733333,14.0066667 87.6,14.34 C88.76,14.7133333 89.6266667,15.0233333 90.2,15.27 C90.7733333,15.5166667 91.21,15.8033333 91.51,16.13 C91.81,16.4566667 91.96,16.8733333 91.96,17.38 C91.96,18.2066667 91.65,18.85 91.03,19.31 C90.41,19.77 89.4666667,20 88.2,20 C87,20 86.08,19.76 85.44,19.28 C84.8,18.8 84.4333333,18.24 84.34,17.6 C84.2866667,17.3333333 84.14,17.2 83.9,17.2 L83.9,17.2 L83.5,17.2 C83.38,17.2 83.28,17.24 83.2,17.32 C83.12,17.4 83.08,17.4933333 83.08,17.6 C83.1066667,18.2266667 83.3233333,18.8133333 83.73,19.36 C84.1366667,19.9066667 84.7233333,20.35 85.49,20.69 C86.2566667,21.03 87.16,21.2 88.2,21.2 Z M98.58,21 C98.94,21 99.1666667,20.8333333 99.26,20.5 L99.26,20.5 L101.78,12.62 L104.3,20.5 C104.393333,20.8333333 104.62,21 104.98,21 L104.98,21 L105.32,21 C105.493333,21 105.626667,20.96 105.72,20.88 C105.813333,20.8 105.893333,20.6733333 105.96,20.5 L105.96,20.5 L108.78,11.22 L108.82,11 C108.82,10.8933333 108.78,10.8 108.7,10.72 C108.62,10.64 108.526667,10.6 108.42,10.6 L108.42,10.6 L108.04,10.6 C107.92,10.6 107.82,10.6333333 107.74,10.7 C107.66,10.7666667 107.613333,10.8333333 107.6,10.9 L107.6,10.9 L105.14,19.22 L102.52,11 C102.493333,10.8933333 102.433333,10.8 102.34,10.72 C102.246667,10.64 102.126667,10.6 101.98,10.6 L101.98,10.6 L101.58,10.6 C101.433333,10.6 101.313333,10.64 101.22,10.72 C101.126667,10.8 101.066667,10.8933333 101.04,11 L101.04,11 L98.42,19.22 L95.96,10.9 C95.9466667,10.8333333 95.9,10.7666667 95.82,10.7 C95.74,10.6333333 95.64,10.6 95.52,10.6 L95.52,10.6 L95.14,10.6 C95.0333333,10.6 94.94,10.64 94.86,10.72 C94.78,10.8 94.74,10.8933333 94.74,11 L94.74,11 L94.78,11.22 L97.6,20.5 C97.6666667,20.6733333 97.7466667,20.8 97.84,20.88 C97.9333333,20.96 98.0666667,21 98.24,21 L98.24,21 L98.58,21 Z M113.48,21.2 C114.413333,21.2 115.163333,21.0466667 115.73,20.74 C116.296667,20.4333333 116.726667,20.06 117.02,19.62 L117.02,19.62 L117.02,20.56 C117.02,20.6933333 117.06,20.8 117.14,20.88 C117.22,20.96 117.326667,21 117.46,21 L117.46,21 L117.8,21 C117.933333,21 118.04,20.96 118.12,20.88 C118.2,20.8 118.24,20.6933333 118.24,20.56 L118.24,20.56 L118.24,13.9 C118.24,12.9266667 117.94,12.1 117.34,11.42 C116.74,10.74 115.726667,10.4 114.3,10.4 C113.486667,10.4 112.8,10.5466667 112.24,10.84 C111.68,11.1333333 111.266667,11.4766667 111,11.87 C110.733333,12.2633333 110.6,12.6066667 110.6,12.9 C110.6,13.02 110.643333,13.1233333 110.73,13.21 C110.816667,13.2966667 110.92,13.34 111.04,13.34 L111.04,13.34 L111.32,13.34 C111.44,13.34 111.536667,13.31 111.61,13.25 C111.683333,13.19 111.746667,13.08 111.8,12.92 C111.92,12.5466667 112.196667,12.2266667 112.63,11.96 C113.063333,11.6933333 113.62,11.56 114.3,11.56 C115.22,11.56 115.903333,11.7566667 116.35,12.15 C116.796667,12.5433333 117.02,13.1066667 117.02,13.84 L117.02,13.84 L117.02,14.54 L113.86,14.98 C112.646667,15.14 111.683333,15.5 110.97,16.06 C110.256667,16.62 109.9,17.34 109.9,18.22 C109.9,18.7666667 110.063333,19.2666667 110.39,19.72 C110.716667,20.1733333 111.153333,20.5333333 111.7,20.8 C112.246667,21.0666667 112.84,21.2 113.48,21.2 Z M113.68,20.04 C113,20.04 112.403333,19.8733333 111.89,19.54 C111.376667,19.2066667 111.12,18.7333333 111.12,18.12 C111.12,17.5733333 111.4,17.12 111.96,16.76 C112.52,16.4 113.346667,16.1466667 114.44,16 L114.44,16 L117.02,15.64 L117.02,16.32 C117.02,17.52 116.706667,18.44 116.08,19.08 C115.453333,19.72 114.653333,20.04 113.68,20.04 Z M121.9,24.8 C122.033333,24.8 122.14,24.76 122.22,24.68 C122.3,24.6 122.34,24.4933333 122.34,24.36 L122.34,24.36 L122.34,19.62 C123.126667,20.6733333 124.246667,21.2 125.7,21.2 C127.14,21.2 128.203333,20.7433333 128.89,19.83 C129.576667,18.9166667 129.94,17.7933333 129.98,16.46 C129.993333,16.3266667 130,16.1066667 130,15.8 C130,15.4933333 129.993333,15.2733333 129.98,15.14 C129.94,13.8066667 129.576667,12.6833333 128.89,11.77 C128.203333,10.8566667 127.14,10.4 125.7,10.4 C124.233333,10.4 123.113333,10.9266667 122.34,11.98 L122.34,11.98 L122.34,11.04 C122.34,10.9066667 122.3,10.8 122.22,10.72 C122.14,10.64 122.033333,10.6 121.9,10.6 L121.9,10.6 L121.56,10.6 C121.426667,10.6 121.32,10.64 121.24,10.72 C121.16,10.8 121.12,10.9066667 121.12,11.04 L121.12,11.04 L121.12,24.36 C121.12,24.4933333 121.16,24.6 121.24,24.68 C121.32,24.76 121.426667,24.8 121.56,24.8 L121.56,24.8 L121.9,24.8 Z M125.58,20.04 C124.873333,20.04 124.28,19.8733333 123.8,19.54 C123.32,19.2066667 122.96,18.7833333 122.72,18.27 C122.48,17.7566667 122.353333,17.2133333 122.34,16.64 L122.34,16.64 L122.32,15.86 L122.34,15.08 C122.38,14.1333333 122.666667,13.31 123.2,12.61 C123.733333,11.91 124.526667,11.56 125.58,11.56 C126.753333,11.56 127.58,11.9566667 128.06,12.75 C128.54,13.5433333 128.78,14.56 128.78,15.8 C128.78,16.04 128.773333,16.2266667 128.76,16.36 C128.72,17.44 128.45,18.3233333 127.95,19.01 C127.45,19.6966667 126.66,20.04 125.58,20.04 Z"/>
    <g filter="url(#blueswap_wordmark-a)">
      <path fill="#388AF7" d="M0.337186667,13.0182667 C0.511186667,5.84069333 6.47082667,0.163146667 13.6484,0.337146667 C20.826,0.511146667 26.5036,6.47077333 26.3296,13.6484 C26.3185333,14.1029333 26.1657333,14.5182667 25.8842667,14.8601333 C25.6150667,15.1872 25.2664,15.4016 24.9225333,15.5452 C24.2530667,15.8246667 23.4141333,15.9122667 22.5838667,15.9178667 C18.9989333,15.9421333 15.8852,19.0256 15.6817333,22.6622667 C15.6341333,23.5108 15.4894667,24.3737333 15.1244,25.0518667 C14.9353333,25.4029333 14.6697333,25.7369333 14.2977333,25.9788 C13.9169333,26.2264 13.4802667,26.3406667 13.0182667,26.3294667 C5.84073333,26.1554667 0.163186667,20.1958667 0.337186667,13.0182667 Z" transform="translate(.667 .667)"/>
    </g>
  </g>
</svg>
